<svg xmlns="http://www.w3.org/2000/svg" width="24.967" height="30.099" viewBox="0 0 24.967 30.099">
  <g id="_61584" data-name="61584" transform="translate(-0.017 0)">
    <path id="Path" d="M1.419.651a1.431,1.431,0,0,0-.4-.292A4.845,4.845,0,0,0,0,0V2.692A1.912,1.912,0,0,0,1.508,1.9h0a1.23,1.23,0,0,0,.112-.84A.845.845,0,0,0,1.419.651Z" transform="translate(13.127 19.342)" fill="#00d09c"/>
    <path id="Path-2" data-name="Path" d="M.048.054l0-.007h0Z" transform="translate(14.598 21.207)"/>
    <path id="Path-3" data-name="Path" d="M.182.668a1.01,1.01,0,0,0-.175.473,1.135,1.135,0,0,0,.058.523.839.839,0,0,0,.326.358,2.545,2.545,0,0,0,.484.25c.141.057.3.111.472.164V0A1.859,1.859,0,0,0,.182.668Z" transform="translate(10.3 15.022)" fill="#00d09c"/>
    <path id="Path-4" data-name="Path" d="M.058.036.042.064h0Z" transform="translate(14.605 21.194)"/>
    <path id="Path-5" data-name="Path" d="M.049.051Z" transform="translate(14.625 21.158)"/>
    <path id="Shape" d="M10.122,29.988C-8.069,28.66,2.359,10.355,9.778,6.71,7.291,5.1,5.7,1.4,6.628.382c.667-.734,1.64-.266,2.705.2a4.667,4.667,0,0,0,2.324.568C12.97.956,15.686-.149,16.937.1c.941.19-.589,4.523-2.878,6.446C22.341,9.958,34.284,30.1,12.994,30.1Q11.649,30.1,10.122,29.988Z" transform="translate(0.017 0)" fill="#00d09c"/>
    <path id="Path-6" data-name="Path" d="M.058.036.042.064Z" transform="translate(14.583 21.233)" fill="#00d09c"/>
  </g>
</svg>
