<svg xmlns="http://www.w3.org/2000/svg" width="23.866" height="24.408" viewBox="0 0 23.866 24.408">
  <g id="_61469" data-name="61469" transform="translate(-0.021)">
    <path id="Path" d="M3.041.553A.554.554,0,0,0,2.487,0H.554A.554.554,0,0,0,0,.553V2.486a.554.554,0,0,0,.554.554H2.487a.554.554,0,0,0,.554-.554V.553Z" transform="translate(5.602 12.912)" fill="#00d09c"/>
    <path id="Path-2" data-name="Path" d="M3.041.553A.554.554,0,0,0,2.487,0H.554A.554.554,0,0,0,0,.553V2.486a.554.554,0,0,0,.554.554H2.487a.554.554,0,0,0,.553-.554Z" transform="translate(10.434 12.912)" fill="#00d09c"/>
    <path id="Path-3" data-name="Path" d="M3.041.553A.554.554,0,0,0,2.487,0H.554A.554.554,0,0,0,0,.553V2.486a.554.554,0,0,0,.554.554H2.487a.554.554,0,0,0,.554-.554Z" transform="translate(15.265 12.912)" fill="#00d09c"/>
    <path id="Path-4" data-name="Path" d="M3.041.554A.554.554,0,0,0,2.487,0H.554A.554.554,0,0,0,0,.554V2.486a.554.554,0,0,0,.554.554H2.487a.554.554,0,0,0,.554-.554V.554Z" transform="translate(5.602 17.744)" fill="#00d09c"/>
    <path id="Path-5" data-name="Path" d="M3.041.554A.553.553,0,0,0,2.487,0H.554A.554.554,0,0,0,0,.554V2.486a.554.554,0,0,0,.554.554H2.487a.554.554,0,0,0,.553-.554Z" transform="translate(10.434 17.744)" fill="#00d09c"/>
    <path id="Path-6" data-name="Path" d="M3.041.554A.553.553,0,0,0,2.487,0H.554A.554.554,0,0,0,0,.554V2.486a.554.554,0,0,0,.554.554H2.487a.554.554,0,0,0,.553-.554V.554Z" transform="translate(15.265 17.744)" fill="#00d09c"/>
    <path id="Shape" d="M2.188,21.7A2.2,2.2,0,0,1,0,19.5V2.2A2.2,2.2,0,0,1,2.124.011V2.963a2.412,2.412,0,0,0,2.417,2.41H6.066A2.423,2.423,0,0,0,8.5,2.963V0h6.872V2.963A2.424,2.424,0,0,0,17.8,5.373h1.526a2.412,2.412,0,0,0,2.417-2.41V.011A2.2,2.2,0,0,1,23.866,2.2V19.5a2.2,2.2,0,0,1-2.188,2.2Z" transform="translate(0.021 2.707)" fill="#00d09c"/>
    <path id="Path-7" data-name="Path" d="M.829,6.5H2.337a.828.828,0,0,0,.829-.828V.829A.829.829,0,0,0,2.337,0H.829A.829.829,0,0,0,0,.829v4.84A.828.828,0,0,0,.829,6.5Z" transform="translate(3.727)" fill="#00d09c"/>
    <path id="Path-8" data-name="Path" d="M.829,6.5H2.337a.828.828,0,0,0,.829-.828V.829A.829.829,0,0,0,2.337,0H.829A.829.829,0,0,0,0,.829v4.84A.828.828,0,0,0,.829,6.5Z" transform="translate(16.973)" fill="#00d09c"/>
  </g>
</svg>
