<svg id="Play" xmlns="http://www.w3.org/2000/svg" width="32" height="32" viewBox="0 0 32 32">
  <g id="Oval">
    <circle id="Oval-2" data-name="Oval" cx="16" cy="16" r="16" transform="translate(0 0)" fill="none"/>
    <g id="Oval-3" data-name="Oval" transform="translate(0 0)" fill="none" stroke="#222" stroke-miterlimit="10" stroke-width="0.8">
      <circle cx="16" cy="16" r="16" stroke="none"/>
      <circle cx="16" cy="16" r="15.6" fill="none"/>
    </g>
  </g>
  <g id="Group" transform="translate(10.4 9.6)">
    <path id="Fill_1" data-name="Fill 1" d="M1.583.2A1.622,1.622,0,0,0,0,.208l5.821,5.37L7.776,3.622,1.583.2" transform="translate(0.806 0.024)" fill="#222"/>
    <path id="Fill_3" data-name="Fill 3" d="M.224,0A1.489,1.489,0,0,0,0,.78v9.7a1.494,1.494,0,0,0,.208.761L6.062,5.385.224,0" transform="translate(0 0.782)" fill="#222"/>
    <path id="Fill_4" data-name="Fill 4" d="M3.961,1.029,2.1,0,0,2.1,2.569,4.464,3.962,3.7a1.509,1.509,0,0,0,0-2.666" transform="translate(7.213 4.048)" fill="#222"/>
    <path id="Fill_5" data-name="Fill 5" d="M5.869,0,0,5.869a1.645,1.645,0,0,0,.815.222,1.641,1.641,0,0,0,.794-.207L8.266,2.211,5.869,0" transform="translate(0.779 6.709)" fill="#222"/>
  </g>
</svg>
