<svg id="Apple" xmlns="http://www.w3.org/2000/svg" width="32" height="32" viewBox="0 0 32 32">
  <g id="Oval">
    <circle id="Oval-2" data-name="Oval" cx="16" cy="16" r="16" transform="translate(0 0)" fill="none"/>
    <g id="Oval-3" data-name="Oval" transform="translate(0 0)" fill="none" stroke="#222" stroke-miterlimit="10" stroke-width="0.8">
      <circle cx="16" cy="16" r="16" stroke="none"/>
      <circle cx="16" cy="16" r="15.6" fill="none"/>
    </g>
  </g>
  <g id="Group_5" data-name="Group 5" transform="translate(10.4 8.8)">
    <path id="Fill_2" data-name="Fill 2" d="M9.476,4.123a3.228,3.228,0,0,1,1.509-2.705A3.227,3.227,0,0,0,8.429.012C7.354-.1,6.311.666,5.763.666S4.361.023,3.452.042A3.4,3.4,0,0,0,.588,1.819C-.65,4,.273,7.207,1.46,8.97c.594.864,1.287,1.828,2.2,1.794.888-.037,1.22-.576,2.292-.576s1.374.576,2.3.554C9.2,10.728,9.8,9.875,10.373,9a7.179,7.179,0,0,0,.972-2.015A3.108,3.108,0,0,1,9.476,4.123" transform="translate(0.047 3.423)" fill="#222"/>
    <path id="Fill_3" data-name="Fill 3" d="M2.089,2.274A3.21,3.21,0,0,0,2.8,0,3.159,3.159,0,0,0,.749,1.081a3.053,3.053,0,0,0-.732,2.19,2.607,2.607,0,0,0,2.073-1" transform="translate(5.685 0)" fill="#222"/>
  </g>
</svg>
