<svg xmlns="http://www.w3.org/2000/svg" width="12.6" height="12.6" viewBox="0 0 12.6 12.6">
  <g id="instagram-logo" transform="translate(-11 -11)">
    <g id="_1077093" data-name="1077093" transform="translate(11 11)">
      <path id="Shape" d="M3.411,12.6A3.415,3.415,0,0,1,0,9.189V3.411A3.415,3.415,0,0,1,3.411,0H9.189A3.415,3.415,0,0,1,12.6,3.411V9.189A3.415,3.415,0,0,1,9.189,12.6Z" fill="#222"/>
      <path id="Path" d="M2.707,0A2.707,2.707,0,1,0,5.413,2.707,2.71,2.71,0,0,0,2.707,0Z" transform="translate(3.593 3.593)" fill="#222"/>
      <path id="Path-2" data-name="Path" d="M.279,0A.279.279,0,1,0,.559.279.28.28,0,0,0,.279,0Z" transform="translate(9.548 2.37)" fill="#222"/>
    </g>
  </g>
</svg>
