<svg xmlns="http://www.w3.org/2000/svg" width="14.58" height="14.58" viewBox="0 0 14.58 14.58">
  <path id="search_-_material" data-name="search - material" d="M13.32,14.58h0L9.18,10.42V9.76l-.24-.22a4.972,4.972,0,0,1-1.61.95,5.536,5.536,0,0,1-1.89.329A5.437,5.437,0,0,1,.74,8.16,5.344,5.344,0,0,1,0,5.42,5.4,5.4,0,0,1,2.71.72,5.4,5.4,0,0,1,5.44,0a5.339,5.339,0,0,1,4.67,2.7,5.4,5.4,0,0,1,.71,2.72,5.593,5.593,0,0,1-.329,1.91,4.97,4.97,0,0,1-.95,1.61l.22.24h.68l4.14,4.14-1.259,1.259ZM5.44,1.68a3.692,3.692,0,0,0-1.879.5A3.8,3.8,0,0,0,2.19,3.54a3.724,3.724,0,0,0,0,3.76A3.867,3.867,0,0,0,3.56,8.67a3.717,3.717,0,0,0,3.759,0A3.781,3.781,0,0,0,8.68,7.3,3.746,3.746,0,0,0,7.32,2.18,3.694,3.694,0,0,0,5.44,1.68Z" fill="#222" opacity="0.5"/>
</svg>
