<svg xmlns="http://www.w3.org/2000/svg" width="18" height="13.076" viewBox="0 0 18 13.076">
  <g id="twitter-logo" transform="translate(-8 -11.064)">
    <path id="Twitter__x28_alt_x29_" d="M15.961,5.813a2.175,2.175,0,0,0,1.961-1.23,3.073,3.073,0,0,1-2.122.248c-.031-.155-.065-.3-.1-.435-.476-1.845-2.107-3.331-3.816-3.151.138-.059.279-.114.418-.163.188-.071,1.292-.26,1.118-.671-.146-.361-1.495.273-1.749.356.335-.133.889-.362.949-.768a2.621,2.621,0,0,0-1.407.7,1.042,1.042,0,0,0,.27-.564c-1.37.923-2.17,2.783-2.817,4.587A6.785,6.785,0,0,0,7.3,3.57,34.639,34.639,0,0,0,2.685,1.427a2.592,2.592,0,0,0,1.54,2.387,3.584,3.584,0,0,0-1.108.14A2.314,2.314,0,0,0,5.133,5.844,1.606,1.606,0,0,0,3.9,6.358,2.066,2.066,0,0,0,6.115,7.5c-1.381.628-.563,1.79.561,1.617A4.6,4.6,0,0,1,0,9.308c4.532,6.512,14.384,3.851,15.852-2.421A2.657,2.657,0,0,0,18,6.031,4.169,4.169,0,0,1,15.961,5.813Z" transform="translate(8 11.064)" fill="#222"/>
  </g>
</svg>
